<svg id="Layer_1" data-name="Layer 1" xmlns="http://www.w3.org/2000/svg" viewBox="0 0 50 50"><defs><style>.cls-1{fill:none;stroke:#1860d3;stroke-miterlimit:10;stroke-width:1.56px;}</style></defs><path class="cls-1" d="M12.14,47.66a11.16,11.16,0,0,1-.09-1.42A12.24,12.24,0,0,1,24.25,34h.06A12.27,12.27,0,0,1,36.59,46.23a13.71,13.71,0,0,1-.08,1.43m9,0V43.1a.34.34,0,0,0-.34-.34l-2.25,0-1.74-.61a.83.83,0,0,1-.53-.55c-.46-1.23-1-2.44-1.5-3.66a1,1,0,0,1,0-.64c.6-1.29,1.21-2.58,1.84-3.86a0,0,0,0,0,0,0,.51.51,0,0,0-.13-.72q-1.52-1.48-3-3a.51.51,0,0,0-.7-.11c-1.22.61-2.48,1.2-3.73,1.8a.86.86,0,0,1-.85,0c-1.14-.53-2.31-1-3.49-1.49a.86.86,0,0,1-.63-.57c-.49-1.45-1-2.89-1.53-4.33-1.59,0-3.18,0-4.8.09a.51.51,0,0,0-.57.42c-.45,1.34-.92,2.66-1.42,4a1.11,1.11,0,0,1-.5.48c-1.21.52-2.44,1-3.65,1.53a.68.68,0,0,1-.7,0c-1.27-.61-2.54-1.2-3.81-1.82a.53.53,0,0,0-.74.11c-1,1-2,2-3,3a.53.53,0,0,0-.12.74c.61,1.22,1.19,2.48,1.8,3.72a.93.93,0,0,1,0,.8c-.54,1.17-1,2.36-1.51,3.56a.81.81,0,0,1-.54.59l-2.11.74a1.09,1.09,0,0,0-.71,1v3.7"/><rect class="cls-1" x="2.34" y="2.34" width="45.32" height="45.32"/><line class="cls-1" x1="6.5" y1="8.85" x2="22.93" y2="8.85"/><line class="cls-1" x1="6.5" y1="18.53" x2="22.93" y2="18.53"/><line class="cls-1" x1="26.92" y1="18.53" x2="39.96" y2="18.53"/><line class="cls-1" x1="15.24" y1="13.69" x2="26.24" y2="13.69"/><line class="cls-1" x1="6.5" y1="13.69" x2="11.61" y2="13.69"/><polyline class="cls-1" points="34.44 2.34 34.44 9.4 43.3 12.66 43.3 2.34"/></svg>