<svg id="Layer_1" data-name="Layer 1" xmlns="http://www.w3.org/2000/svg" viewBox="0 0 50 50"><defs><style>.cls-1{fill:none;stroke:#1860d3;stroke-miterlimit:10;stroke-width:1.56px;}</style></defs><polyline class="cls-1" points="19.16 4.12 2.96 4.12 2.96 47.66 48.28 47.66 48.28 4.12 46.1 4.12"/><line class="cls-1" x1="7.13" y1="10.4" x2="23.56" y2="10.4"/><line class="cls-1" x1="7.13" y1="20.08" x2="19.74" y2="20.08"/><line class="cls-1" x1="27.54" y1="10.4" x2="43.88" y2="10.4"/><line class="cls-1" x1="31.58" y1="20.08" x2="43.88" y2="20.08"/><line class="cls-1" x1="15.87" y1="15.24" x2="43.88" y2="15.24"/><line class="cls-1" x1="7.13" y1="15.24" x2="12.23" y2="15.24"/><circle class="cls-1" cx="41.41" cy="4.12" r="2.47"/><circle class="cls-1" cx="32.82" cy="4.12" r="2.47"/><circle class="cls-1" cx="24.24" cy="4.12" r="2.47"/><path class="cls-1" d="M23.6,18.74,11.08,40.44a2.33,2.33,0,0,0,2,3.5h25a2.34,2.34,0,0,0,2-3.5L27.65,18.74A2.34,2.34,0,0,0,23.6,18.74Z"/><rect class="cls-1" x="24.01" y="24.65" width="3.23" height="9.9"/><rect class="cls-1" x="24.01" y="37.81" width="3.23" height="2.87"/></svg>