<svg id="Layer_1" data-name="Layer 1" xmlns="http://www.w3.org/2000/svg" viewBox="0 0 50 50"><defs><style>.cls-1,.cls-2{fill:none;stroke:#1860d3;stroke-miterlimit:10;}.cls-1{stroke-width:1.72px;}.cls-2{stroke-width:1.56px;}</style></defs><path class="cls-1" d="M25,48.32C46.82,41.35,46,14,46,14A26.38,26.38,0,0,1,25,3.31,26.38,26.38,0,0,1,4,14S3.18,41.35,25,48.32Z"/><path class="cls-2" d="M42.77,32.79V29a.28.28,0,0,0-.29-.28l-1.87,0-1.44-.51a.66.66,0,0,1-.44-.46c-.39-1-.84-2-1.25-3a.8.8,0,0,1,0-.53c.49-1.08,1-2.14,1.52-3.21,0,0,0,0,0,0a.43.43,0,0,0-.11-.6c-.84-.83-1.69-1.66-2.51-2.52a.43.43,0,0,0-.58-.09c-1,.51-2.07,1-3.11,1.5a.68.68,0,0,1-.7,0c-.95-.44-1.93-.86-2.91-1.23a.74.74,0,0,1-.52-.48c-.41-1.21-.84-2.4-1.27-3.6-1.33,0-2.64,0-4,.08a.41.41,0,0,0-.47.34c-.37,1.12-.76,2.22-1.17,3.31a1,1,0,0,1-.42.4c-1,.43-2,.83-3,1.28a.62.62,0,0,1-.59,0c-1.06-.51-2.12-1-3.17-1.52a.45.45,0,0,0-.62.09l-2.47,2.49a.43.43,0,0,0-.1.61c.51,1,1,2.06,1.5,3.1a.8.8,0,0,1,0,.66c-.46,1-.87,2-1.26,3a.66.66,0,0,1-.45.49l-1.75.62a.91.91,0,0,0-.6.85v3.08"/><circle class="cls-2" cx="25" cy="31.96" r="6.14"/></svg>