<svg id="Layer_1" data-name="Layer 1" xmlns="http://www.w3.org/2000/svg" viewBox="0 0 50 50"><defs><style>.cls-1{fill:none;stroke:#1860d3;stroke-miterlimit:10;stroke-width:1.45px;}</style></defs><path class="cls-1" d="M24.29,12.87a12.45,12.45,0,0,1,1.5-.09,13,13,0,0,1,13,13v.06a13,13,0,0,1-13,13,12.79,12.79,0,0,1-1.52-.09m0,9.52h4.84a.37.37,0,0,0,.36-.37l0-2.38c.21-.62.43-1.24.65-1.85a.86.86,0,0,1,.58-.56c1.31-.5,2.59-1.07,3.89-1.59a1,1,0,0,1,.68,0c1.37.63,2.73,1.28,4.1,1.94l0,0a.54.54,0,0,0,.76-.14c1.05-1.07,2.12-2.15,3.21-3.21a.54.54,0,0,0,.12-.74c-.66-1.29-1.28-2.64-1.92-4a.9.9,0,0,1,0-.9c.56-1.21,1.1-2.46,1.58-3.71a.94.94,0,0,1,.61-.67c1.54-.52,3.07-1.07,4.6-1.63,0-1.69,0-3.37-.1-5.09a.55.55,0,0,0-.45-.61c-1.42-.47-2.82-1-4.21-1.5a1.21,1.21,0,0,1-.52-.53c-.55-1.29-1.07-2.59-1.63-3.88a.77.77,0,0,1,0-.75c.65-1.34,1.28-2.69,1.94-4a.56.56,0,0,0-.12-.79L40.09,8.17A.56.56,0,0,0,39.3,8C38,8.69,36.67,9.31,35.35,10a1,1,0,0,1-.84,0c-1.25-.58-2.52-1.11-3.79-1.6a.87.87,0,0,1-.62-.57c-.26-.76-.53-1.5-.79-2.25a1.17,1.17,0,0,0-1.09-.76H24.29"/><path class="cls-1" d="M22.87,4.22s-8.44,14-21.22,14c0,0-.25,24.49,21.22,30.08"/><path class="cls-1" d="M23.58,18.69a8.71,8.71,0,0,0,0,17.41"/></svg>